<svg width="296" height="75" viewBox="0 0 296 75" fill="none" xmlns="http://www.w3.org/2000/svg">
<circle cx="37.5" cy="37.5" r="36" stroke="white" stroke-width="3"/>
<rect x="16.1213" y="38.3345" width="30" height="30" transform="rotate(-45 16.1213 38.3345)" stroke="white" stroke-width="3"/>
<path d="M93.168 41.712C93.168 43.28 93.536 44.688 94.272 45.936C95.04 47.152 96.048 48.112 97.296 48.816C98.544 49.52 99.952 49.872 101.52 49.872C103.152 49.872 104.608 49.52 105.888 48.816C107.168 48.112 108.176 47.152 108.912 45.936C109.648 44.688 110.016 43.28 110.016 41.712V19.296H114.576V41.856C114.576 44.384 113.984 46.592 112.8 48.48C111.648 50.368 110.08 51.824 108.096 52.848C106.144 53.872 103.952 54.384 101.52 54.384C99.088 54.384 96.896 53.872 94.944 52.848C92.992 51.824 91.44 50.368 90.288 48.48C89.136 46.592 88.56 44.384 88.56 41.856V19.296H93.168V41.712ZM124.917 25.392H129.381V34.224H134.853V37.728H129.381V54H124.917V37.728H121.269V34.224H124.917V25.392ZM148.503 54.48C146.647 54.48 144.951 54.08 143.415 53.28C141.911 52.48 140.711 51.312 139.815 49.776C138.951 48.208 138.519 46.304 138.519 44.064C138.519 41.856 138.983 39.952 139.911 38.352C140.839 36.72 142.071 35.472 143.607 34.608C145.175 33.744 146.887 33.312 148.743 33.312C150.599 33.312 152.167 33.744 153.447 34.608C154.727 35.44 155.703 36.432 156.375 37.584L156.087 38.352L156.519 34.128H160.647V54H156.183V48.816L156.663 49.968C156.535 50.288 156.247 50.704 155.799 51.216C155.383 51.696 154.807 52.192 154.071 52.704C153.367 53.216 152.551 53.648 151.623 54C150.695 54.32 149.655 54.48 148.503 54.48ZM149.703 50.784C150.823 50.784 151.831 50.576 152.727 50.16C153.623 49.744 154.359 49.168 154.935 48.432C155.543 47.664 155.959 46.752 156.183 45.696V41.808C155.927 40.848 155.479 40.016 154.839 39.312C154.199 38.576 153.431 38.016 152.535 37.632C151.639 37.216 150.647 37.008 149.559 37.008C148.375 37.008 147.287 37.296 146.295 37.872C145.303 38.448 144.503 39.248 143.895 40.272C143.319 41.296 143.031 42.496 143.031 43.872C143.031 45.152 143.335 46.32 143.943 47.376C144.551 48.432 145.367 49.264 146.391 49.872C147.415 50.48 148.519 50.784 149.703 50.784ZM193.928 19.296C196.456 19.296 198.616 19.728 200.408 20.592C202.2 21.424 203.576 22.64 204.536 24.24C205.528 25.84 206.024 27.776 206.024 30.048C206.024 31.424 205.816 32.784 205.4 34.128C204.984 35.44 204.312 36.64 203.384 37.728C202.488 38.784 201.304 39.632 199.832 40.272C198.36 40.912 196.568 41.232 194.456 41.232H189.32V54H184.664V19.296H193.928ZM194.408 36.768C195.784 36.768 196.92 36.544 197.816 36.096C198.712 35.648 199.416 35.088 199.928 34.416C200.44 33.712 200.808 32.976 201.032 32.208C201.256 31.44 201.368 30.752 201.368 30.144C201.368 29.44 201.256 28.72 201.032 27.984C200.808 27.216 200.424 26.528 199.88 25.92C199.368 25.28 198.68 24.768 197.816 24.384C196.984 23.968 195.944 23.76 194.696 23.76H189.32V36.768H194.408ZM220.363 54.48C218.507 54.48 216.811 54.08 215.275 53.28C213.771 52.48 212.571 51.312 211.675 49.776C210.811 48.208 210.379 46.304 210.379 44.064C210.379 41.856 210.843 39.952 211.771 38.352C212.699 36.72 213.931 35.472 215.467 34.608C217.035 33.744 218.747 33.312 220.603 33.312C222.459 33.312 224.027 33.744 225.307 34.608C226.587 35.44 227.563 36.432 228.235 37.584L227.947 38.352L228.379 34.128H232.507V54H228.043V48.816L228.523 49.968C228.395 50.288 228.107 50.704 227.659 51.216C227.243 51.696 226.667 52.192 225.931 52.704C225.227 53.216 224.411 53.648 223.483 54C222.555 54.32 221.515 54.48 220.363 54.48ZM221.563 50.784C222.683 50.784 223.691 50.576 224.587 50.16C225.483 49.744 226.219 49.168 226.795 48.432C227.403 47.664 227.819 46.752 228.043 45.696V41.808C227.787 40.848 227.339 40.016 226.699 39.312C226.059 38.576 225.291 38.016 224.395 37.632C223.499 37.216 222.507 37.008 221.419 37.008C220.235 37.008 219.147 37.296 218.155 37.872C217.163 38.448 216.363 39.248 215.755 40.272C215.179 41.296 214.891 42.496 214.891 43.872C214.891 45.152 215.195 46.32 215.803 47.376C216.411 48.432 217.227 49.264 218.251 49.872C219.275 50.48 220.379 50.784 221.563 50.784ZM244.216 34.128L244.648 39.888L244.408 39.12C244.92 37.904 245.656 36.88 246.616 36.048C247.608 35.184 248.632 34.528 249.688 34.08C250.776 33.6 251.72 33.36 252.52 33.36L252.28 37.776C250.776 37.68 249.448 37.968 248.296 38.64C247.176 39.312 246.28 40.208 245.608 41.328C244.968 42.448 244.648 43.648 244.648 44.928V54H240.232V34.128H244.216ZM260.199 25.392H264.663V34.224H270.135V37.728H264.663V54H260.199V37.728H256.551V34.224H260.199V25.392ZM277.209 63.552L290.313 34.128H294.441L281.625 63.552H277.209ZM282.105 54.144L272.553 34.128H277.593L285.609 51.888L282.105 54.144Z" fill="white"/>
</svg>
